<svg id="visual" viewBox="0 0 900 600" width="900" height="600" xmlns="http://www.w3.org/2000/svg" xmlns:xlink="http://www.w3.org/1999/xlink" version="1.1"><rect x="0" y="0" width="900" height="600" fill="#fa9715"></rect><defs><linearGradient id="grad1_0" x1="33.3%" y1="100%" x2="100%" y2="0%"><stop offset="20%" stop-color="#fa9715" stop-opacity="1"></stop><stop offset="80%" stop-color="#fa9715" stop-opacity="1"></stop></linearGradient></defs><defs><linearGradient id="grad2_0" x1="0%" y1="100%" x2="66.7%" y2="0%"><stop offset="20%" stop-color="#fa9715" stop-opacity="1"></stop><stop offset="80%" stop-color="#fa9715" stop-opacity="1"></stop></linearGradient></defs><g transform="translate(900, 600)"><path d="M-378.6 0C-355.3 -41.4 -332.1 -82.9 -317.8 -131.6C-303.6 -180.4 -298.3 -236.5 -267.7 -267.7C-237.1 -298.9 -181.2 -305.3 -132.4 -319.7C-83.6 -334 -41.8 -356.3 0 -378.6L0 0Z" fill="#fff"></path></g><g transform="translate(0, 0)"><path d="M378.6 0C362 47.3 345.5 94.7 322.4 133.6C299.4 172.4 269.7 202.8 241.1 241.1C212.5 279.4 184.9 325.5 144.9 349.8C104.9 374 52.4 376.3 0 378.6L0 0Z" fill="#fff"></path></g></svg>