<svg id="visual" viewBox="0 0 900 600" width="900" height="600" xmlns="http://www.w3.org/2000/svg" xmlns:xlink="http://www.w3.org/1999/xlink" version="1.1"><rect x="0" y="0" width="900" height="600" fill="#fff"></rect><g transform="translate(59.674632131157125 67.15337450597497)"><path d="M318.5 -584.1C404.9 -501.7 461.8 -400.6 501 -300.1C540.2 -199.7 561.6 -99.8 571.8 5.9C582.1 111.7 581.2 223.3 521.5 288.3C461.8 353.2 343.4 371.5 246.7 431.8C150 492.1 75 594.6 -0.3 595.1C-75.7 595.7 -151.3 494.5 -256.4 439C-361.5 383.5 -496 373.7 -560.3 308.2C-624.6 242.7 -618.8 121.3 -643.6 -14.3C-668.5 -150 -723.9 -300 -679.3 -399.6C-634.6 -499.2 -489.8 -548.4 -359.9 -605.7C-230 -663 -115 -728.5 0.5 -729.4C116 -730.3 232 -666.5 318.5 -584.1" fill="#fa9715"></path></g></svg>