<svg id="visual" viewBox="0 0 900 600" width="900" height="600" xmlns="http://www.w3.org/2000/svg" xmlns:xlink="http://www.w3.org/1999/xlink" version="1.1"><rect width="900" height="600" fill="#fff"></rect><g><g transform="translate(259 446)"><path d="M87.3 -25.1C99.8 10.1 87.5 56.7 58.4 77C29.4 97.3 -16.3 91.3 -48.2 67.8C-80.1 44.3 -98.2 3.2 -87.9 -29C-77.5 -61.2 -38.8 -84.6 -0.7 -84.4C37.4 -84.1 74.8 -60.3 87.3 -25.1Z" fill="none" stroke="#fa9715" stroke-width="20"></path></g><g transform="translate(466 183)"><path d="M35.8 -14C40.7 3.2 34.8 21.6 21.6 31.6C8.4 41.6 -12.1 43.3 -26.5 33.5C-40.8 23.8 -49 2.6 -43.6 -15.5C-38.1 -33.5 -19.1 -48.5 -1.8 -47.9C15.5 -47.3 31 -31.2 35.8 -14Z" fill="none" stroke="#fa9715" stroke-width="20"></path></g><g transform="translate(535 560)"><path d="M89.7 -29.2C101.4 7 85.9 52 55 74C24.1 96.1 -22.3 95.3 -49.2 74.2C-76.1 53.1 -83.6 11.8 -72.2 -24.1C-60.7 -59.9 -30.4 -90.1 4.3 -91.5C39 -92.9 78 -65.5 89.7 -29.2Z" fill="none" stroke="#fa9715" stroke-width="20"></path></g><g transform="translate(25 577)"><path d="M47.5 -16.6C53.4 2.6 44.3 25.5 26.8 38.6C9.3 51.7 -16.5 55 -33.8 43.2C-51 31.5 -59.6 4.6 -52.6 -16.2C-45.5 -37 -22.8 -51.9 -1 -51.6C20.8 -51.3 41.7 -35.8 47.5 -16.6Z" stroke="#fa9715" fill="none" stroke-width="20"></path></g><g transform="translate(809 150)"><path d="M71.3 -24.5C79.7 2.8 65.1 36.2 41.5 52.1C18 68 -14.6 66.5 -38.9 49.8C-63.1 33.1 -79 1.1 -71.1 -25.4C-63.3 -52 -31.6 -73.1 -0.1 -73C31.4 -73 62.9 -51.8 71.3 -24.5Z" stroke="#fa9715" fill="none" stroke-width="20"></path></g></g></svg>