<svg id="visual" viewBox="0 0 900 600" width="900" height="600" xmlns="http://www.w3.org/2000/svg" xmlns:xlink="http://www.w3.org/1999/xlink" version="1.1"><path d="M0 331L15 312C30 293 60 255 90 237C120 219 150 221 180 229C210 237 240 251 270 245C300 239 330 213 360 215C390 217 420 247 450 254C480 261 510 245 540 254C570 263 600 297 630 284C660 271 690 211 720 185C750 159 780 167 810 188C840 209 870 243 885 260L900 277L900 0L885 0C870 0 840 0 810 0C780 0 750 0 720 0C690 0 660 0 630 0C600 0 570 0 540 0C510 0 480 0 450 0C420 0 390 0 360 0C330 0 300 0 270 0C240 0 210 0 180 0C150 0 120 0 90 0C60 0 30 0 15 0L0 0Z" fill="#fa9715"></path><path d="M0 505L15 505C30 505 60 505 90 488C120 471 150 437 180 425C210 413 240 423 270 436C300 449 330 465 360 472C390 479 420 477 450 469C480 461 510 447 540 451C570 455 600 477 630 488C660 499 690 499 720 497C750 495 780 491 810 486C840 481 870 475 885 472L900 469L900 275L885 258C870 241 840 207 810 186C780 165 750 157 720 183C690 209 660 269 630 282C600 295 570 261 540 252C510 243 480 259 450 252C420 245 390 215 360 213C330 211 300 237 270 243C240 249 210 235 180 227C150 219 120 217 90 235C60 253 30 291 15 310L0 329Z" fill="#ffca91"></path><path d="M0 601L15 601C30 601 60 601 90 601C120 601 150 601 180 601C210 601 240 601 270 601C300 601 330 601 360 601C390 601 420 601 450 601C480 601 510 601 540 601C570 601 600 601 630 601C660 601 690 601 720 601C750 601 780 601 810 601C840 601 870 601 885 601L900 601L900 467L885 470C870 473 840 479 810 484C780 489 750 493 720 495C690 497 660 497 630 486C600 475 570 453 540 449C510 445 480 459 450 467C420 475 390 477 360 470C330 463 300 447 270 434C240 421 210 411 180 423C150 435 120 469 90 486C60 503 30 503 15 503L0 503Z" fill="#ffffff"></path></svg>