<svg id="visual" viewBox="0 0 900 600" width="900" height="600" xmlns="http://www.w3.org/2000/svg" xmlns:xlink="http://www.w3.org/1999/xlink" version="1.1"><rect x="0" y="0" width="900" height="600" fill="#fff"></rect><path d="M0 361L21.5 368.8C43 376.7 86 392.3 128.8 398C171.7 403.7 214.3 399.3 257.2 387C300 374.7 343 354.3 385.8 355.2C428.7 356 471.3 378 514.2 377C557 376 600 352 642.8 352C685.7 352 728.3 376 771.2 383C814 390 857 380 878.5 375L900 370L900 601L878.5 601C857 601 814 601 771.2 601C728.3 601 685.7 601 642.8 601C600 601 557 601 514.2 601C471.3 601 428.7 601 385.8 601C343 601 300 601 257.2 601C214.3 601 171.7 601 128.8 601C86 601 43 601 21.5 601L0 601Z" fill="#fa9715" stroke-linecap="round" stroke-linejoin="miter"></path></svg>